<?xml version="1.0" standalone="no"?><!DOCTYPE svg PUBLIC "-//W3C//DTD SVG 1.1//EN" "http://www.w3.org/Graphics/SVG/1.1/DTD/svg11.dtd"><svg t="1586443092911" class="icon" viewBox="0 0 1024 1024" version="1.1" xmlns="http://www.w3.org/2000/svg" p-id="1960" xmlns:xlink="http://www.w3.org/1999/xlink" width="200" height="200"><defs><style type="text/css"></style></defs><path d="M521.550369 1024C390.573877 1024 154.543324 819.349231 150.450309 617.42714V187.660525c1.364338-36.837138 28.651108-66.852584 65.488246-70.945599 45.023169-4.093015 90.046338-15.007723 130.976492-32.744123 43.658831-12.279046 84.588984-35.4728 120.061784-65.488246 27.286769-23.193754 66.852584-24.558092 96.86803-4.093016 38.201477 27.286769 77.767292 50.480523 121.426123 68.216923 45.023169 13.643385 90.046338 24.558092 136.433846 31.379785 35.4728 6.821692 61.395231 36.837138 64.123907 73.674276 2.728677 77.767292 2.728677 356.092337-2.728676 433.85963C853.084614 880.744462 649.798184 1024 521.550369 1024z m0-976.866336c-6.821692 0-13.643385 1.364338-20.465077 6.821693-39.565815 35.4728-85.953323 61.395231-136.433845 75.038615-46.387508 19.100738-95.503692 31.379785-145.984215 35.4728-10.914708 2.728677-19.100738 12.279046-19.100739 24.558092v428.402276c2.728677 178.728338 222.387169 358.821014 321.983876 358.821014s285.146738-120.061784 315.162184-358.821014c6.821692-141.8912 0-427.037937 0-427.037938-1.364338-13.643385-10.914708-24.558092-23.193754-27.286769-49.116184-8.186031-98.232369-19.100738-145.984215-34.108461-46.387508-19.100738-88.682-45.023169-128.247815-76.402954-5.457354-4.093015-12.279046-5.457354-19.100738-5.457354h1.364338z" fill="#787878" p-id="1961"></path><path d="M304.620554 367.753202h58.666554v125.519138c0 9.550369 5.457354 15.007723 15.007723 15.007723h5.457354V345.923787c0-9.550369-5.457354-15.007723-15.007723-15.007724h-66.852584v-25.92243h111.875753c17.7364 0 31.379785 13.643385 31.379785 30.015446v175.999661c9.550369 5.457354 16.372061 15.007723 16.372061 27.286769v155.534584c0 16.372061-15.007723 30.015446-31.379784 30.015446h-73.674277v-25.92243h27.286769c9.550369 0 17.7364-8.186031 17.7364-17.7364v-132.340831c0-9.550369-5.457354-15.007723-15.007723-15.007723h-50.480523c-17.7364 0-31.379785-13.643385-31.379785-30.015446v-135.069507z m-1.364338 261.952984v-25.922431h90.046338v25.922431h-90.046338z m341.084614-330.169907c25.922431 55.937877 54.573538 109.147077 92.775016 158.263261h-73.674277c-20.465077-27.286769-38.201477-60.030892-54.573539-90.046338-16.372061 30.015446-34.108461 62.759569-54.573538 90.046338h-73.674277c36.837138-49.116184 65.488246-103.689723 91.410677-158.263261h72.309938zM479.255877 723.845539v-24.558092H737.115846V723.845539H479.255877z m23.193754-45.023169L491.534923 521.923448h57.302215l10.914708 156.898922h-57.302215z m-4.093016-180.092676v-25.922431h216.929815v25.922431H498.356615z m84.588985 180.092676L573.395231 521.923448h57.302215l10.914707 156.898922h-58.666553z m70.9456 0l10.914707-156.898922h57.302215l-10.914707 156.898922h-57.302215z" fill="#4AB52E" p-id="1962"></path></svg>